# Blender v2.91.0 OBJ File: ''
# www.blender.org
o Table_tableto
v 0.719420 0.001586 -0.306840
v 0.711383 0.001586 -0.298811
v 0.618540 0.001141 -0.298811
v 0.618540 0.001141 -0.405983
v 0.626573 0.001141 -0.414012
v 0.712508 0.001586 -0.414012
v 0.719420 0.001586 -0.407106
v 0.719894 0.001141 0.306752
v 0.727923 0.001141 0.314781
v 0.727923 0.001141 0.415005
v 0.721017 0.001141 0.421911
v 0.625428 0.001141 0.421911
v 0.617383 0.001141 0.413881
v 0.617383 0.001141 0.306752
v -0.619968 -0.000398 -0.414608
v -0.611939 -0.000398 -0.406579
v -0.611939 -0.000398 -0.310030
v -0.706921 -0.000398 -0.308074
v -0.714955 -0.000398 -0.316030
v -0.714954 -0.000398 -0.407703
v -0.708045 -0.000398 -0.414608
v 0.612705 0.751364 0.306752
v 0.719894 0.751364 0.306752
v -0.607981 0.754158 0.301922
v -0.607981 0.754158 0.409095
v -0.607981 -0.000398 0.409095
v -0.607981 -0.000398 0.304352
v -0.720250 0.751364 -0.414609
v -0.619968 0.751364 -0.414609
v 0.733225 0.751364 -0.306840
v 0.733225 0.751364 -0.407107
v 0.726320 0.751364 -0.414013
v 0.626069 0.751364 -0.414013
v -0.610204 -0.000398 0.413558
v -0.610227 0.754158 0.413993
v -0.611939 0.751364 -0.406579
v -0.611939 0.751364 -0.299407
v 0.612705 0.751364 0.413881
v 0.618040 0.751364 -0.298811
v 0.725196 0.751364 -0.298811
v -0.727156 0.751364 -0.407703
v -0.719127 0.751364 -0.299407
v -0.837992 0.799728 0.085408
v -0.792948 0.799728 0.103106
v -0.837993 0.799728 -0.060547
v -0.785841 0.795444 0.451848
v -0.838106 0.795444 0.439584
v -0.838106 0.755132 0.439584
v -0.785841 0.755132 0.451848
v 0.837992 0.750847 0.299004
v 0.837992 0.750847 0.447564
v -0.785345 0.750847 0.447564
v -0.840371 0.799728 0.434651
v -0.785345 0.799728 0.447564
v -0.840371 0.799728 0.304166
v -0.837992 0.795444 0.299004
v 0.837992 0.795444 0.299004
v -0.837992 0.750847 0.299004
v 0.829493 0.799728 -0.092196
v 0.828877 0.799728 -0.241680
v 0.695153 0.799728 -0.261804
v 0.842277 0.795444 0.303288
v 0.842277 0.795444 0.451848
v 0.842277 0.755132 0.451848
v 0.842277 0.755132 0.303288
v 0.837992 0.799728 0.447564
v 0.837992 0.799728 0.304166
v -0.837992 0.750847 -0.272978
v -0.837992 0.750847 -0.415036
v -0.788854 0.750847 -0.431206
v 0.789541 0.750847 0.107390
v -0.837993 0.750847 -0.075397
v 0.837992 0.750847 -0.075398
v 0.793095 0.750847 -0.431206
v 0.837992 0.750847 -0.272979
v -0.788854 0.799728 -0.431206
v -0.837992 0.799728 -0.415036
v -0.840611 0.799728 -0.278112
v 0.828877 0.795444 -0.080891
v -0.828877 0.795444 -0.080891
v -0.828877 0.750847 -0.080891
v 0.828877 0.750847 -0.080891
v 0.837992 0.799728 -0.415523
v 0.793095 0.799728 -0.431206
v 0.837992 0.799728 -0.277263
v 0.837992 0.795444 -0.272979
v -0.837992 0.795444 -0.272978
v 0.842277 0.795444 0.087871
v 0.789541 0.795444 0.107390
v 0.837993 0.750847 0.089457
v 0.842277 0.755132 0.087871
v -0.819972 0.799728 0.120237
v -0.819972 0.799728 0.285881
v 0.819972 0.799728 0.285881
v 0.819972 0.799728 0.120237
v 0.837992 0.750847 -0.415523
v -0.842277 0.795444 -0.418136
v -0.789541 0.795444 -0.435490
v -0.789541 0.755132 -0.435490
v -0.842277 0.755132 -0.418136
v -0.842277 0.795444 0.434320
v -0.842277 0.795444 0.303288
v -0.842277 0.755132 0.303288
v -0.842277 0.755132 0.434320
v 0.791764 0.795444 -0.435490
v 0.842277 0.795444 -0.417845
v 0.842277 0.755132 -0.417845
v 0.791764 0.755132 -0.435490
v 0.819972 0.795444 0.290165
v -0.819972 0.795444 0.290165
v -0.819972 0.750847 0.290165
v 0.819972 0.750847 0.290165
v 0.824257 0.795444 0.120237
v 0.824257 0.795444 0.285881
v 0.824257 0.755132 0.285881
v 0.824257 0.755132 0.120237
v -0.842277 0.795444 0.087544
v -0.842277 0.795444 -0.071113
v -0.842277 0.755132 -0.071113
v -0.842277 0.755132 0.087544
v -0.819972 0.795444 0.115952
v 0.819972 0.795444 0.115952
v 0.819972 0.750847 0.115952
v -0.819972 0.750847 0.115952
v 0.842277 0.795444 -0.277263
v 0.842277 0.755132 -0.277263
v -0.828877 0.750847 -0.262527
v 0.695460 0.750847 -0.273003
v -0.828877 0.795444 -0.262527
v 0.695460 0.795444 -0.273003
v -0.833161 0.795444 -0.091721
v -0.833161 0.795444 -0.252037
v -0.833161 0.755132 -0.252037
v -0.833161 0.755132 -0.091721
v 0.828877 0.750847 -0.246013
v -0.824257 0.795444 0.285881
v -0.824257 0.795444 0.120237
v -0.824257 0.755132 0.120237
v -0.824257 0.755132 0.285881
v -0.828877 0.799728 -0.252064
v -0.828877 0.799728 -0.091721
v -0.791764 0.795444 0.107390
v -0.791764 0.750847 0.107390
v 0.833161 0.795444 -0.245368
v 0.833161 0.755132 -0.245368
v 0.788774 0.799728 0.103105
v 0.837993 0.799728 0.084888
v 0.837992 0.799728 -0.060548
v -0.837992 0.750847 0.435209
v -0.837992 0.750847 0.089227
v 0.842277 0.795444 -0.071114
v 0.842277 0.755132 -0.071114
v -0.842277 0.795444 -0.277263
v -0.842277 0.755132 -0.277263
v -0.837993 0.795444 -0.075397
v 0.837992 0.795444 -0.075398
v 0.833161 0.795444 -0.091721
v 0.833161 0.755132 -0.091721
v -0.658757 0.609103 0.397597
v 0.663702 0.609103 0.397597
v 0.663702 0.750021 0.397597
v -0.658757 0.750021 0.397597
v 0.660468 0.750021 0.350619
v 0.660468 0.609103 0.350619
v -0.657290 0.609103 0.350620
v -0.657290 0.750021 0.350620
v -0.707638 0.609103 -0.404385
v -0.707638 0.609103 0.397597
v -0.707638 0.750021 0.397597
v -0.707638 0.750021 -0.404385
v -0.658757 0.609103 -0.404385
v -0.658757 0.750021 -0.404385
v -0.656529 0.609103 -0.353763
v 0.664327 0.609103 -0.353763
v 0.664327 0.750021 -0.353763
v -0.656529 0.750021 -0.353763
v 0.663702 0.750021 -0.404385
v 0.663702 0.609103 -0.404385
v 0.712583 0.750021 0.397597
v 0.712583 0.609103 0.397597
v 0.712583 0.609103 -0.404385
v 0.712583 0.750021 -0.404385
v -0.715142 -0.000398 0.304352
v -0.715142 0.754158 0.301922
v -0.714179 -0.000398 0.415067
v -0.615965 -0.000398 0.416276
v -0.616010 0.754158 0.417124
v -0.716264 0.754158 0.417124
v 0.620735 0.751364 0.421911
v 0.721017 0.751364 0.421911
v 0.670314 0.751364 0.421911
v -0.720049 0.754158 0.304173
v -0.719376 -0.000398 0.306547
v -0.721858 -0.000398 0.312184
v -0.723171 0.754158 0.309979
v 0.618040 0.751364 -0.405983
v -0.718815 -0.000398 0.412475
v -0.720624 0.754158 0.414568
v 0.727923 0.751364 0.415005
v -0.727156 0.751364 -0.307439
v 0.727923 0.751364 0.314781
v -0.721726 -0.000398 0.408190
v -0.723171 0.754158 0.410219
vn 0.0045 -1.0000 0.0042
vn 0.0052 -1.0000 -0.0052
vn 0.0046 -1.0000 -0.0014
vn -0.0000 -1.0000 -0.0000
vn 0.0000 0.0000 -1.0000
vn 0.9770 -0.0001 0.2134
vn 1.0000 -0.0000 0.0000
vn 0.9998 -0.0184 0.0000
vn 0.8952 -0.0000 0.4457
vn 0.9090 -0.0002 0.4168
vn -1.0000 -0.0062 0.0000
vn 0.7067 -0.0130 -0.7074
vn 0.7071 -0.0130 -0.7070
vn 0.0000 -0.0000 1.0000
vn -0.7069 -0.0115 -0.7073
vn -0.7071 -0.0115 -0.7071
vn 0.0016 -0.0117 0.9999
vn 0.0187 -0.0139 0.9997
vn 0.0206 -0.0141 0.9997
vn 0.0000 1.0000 0.0000
vn -0.0288 0.9876 -0.1543
vn -0.2284 0.0000 0.9736
vn -0.1150 0.0000 0.9934
vn 0.0001 0.9841 0.1774
vn 0.0789 0.9151 -0.3954
vn 0.0140 0.9817 -0.1900
vn 0.1763 0.0000 0.9843
vn 0.3471 0.0000 0.9378
vn -0.1583 0.0000 -0.9874
vn -0.3126 0.0000 -0.9499
vn -0.9809 0.1948 0.0000
vn -1.0000 0.0000 0.0000
vn -0.9772 0.2123 0.0000
vn 0.3298 0.0000 -0.9441
vn 0.1672 0.0000 -0.9859
vn 0.0961 -0.0005 -0.9954
vn -0.0069 0.0000 -1.0000
vn -0.9813 0.0000 -0.1926
vn -0.9785 0.0000 0.2061
vn -0.9823 0.0000 0.1872
vn -0.0012 0.9813 -0.1923
vn 0.0000 0.9823 0.1872
vn -0.1861 -0.0000 0.9825
vn 0.1938 -0.0044 -0.9810
vn 0.1489 0.0000 -0.9889
vn 0.1829 -0.0027 -0.9831
vn 0.0288 0.9876 -0.1543
vn 0.9823 -0.0000 0.1872
vn -0.3657 -0.0000 0.9307
vn -0.3656 0.0000 0.9308
vn -0.3657 -0.0000 0.9308
vn 0.0000 -0.0032 -1.0000
vn -0.2133 -0.0031 -0.9770
vn 0.5773 0.5774 -0.5773
vn 0.5773 0.5774 0.5774
vn -0.6923 0.2027 -0.6925
vn -0.6424 0.4175 -0.6426
vn -0.7006 0.1344 -0.7008
vn -0.7017 0.7017 0.1235
vn -0.6810 0.6810 0.2694
vn -0.5773 0.5774 -0.5773
vn -0.5773 0.5774 0.5774
vn -0.7017 0.7009 -0.1274
vn -0.6801 0.6784 -0.2778
vn -0.7018 0.7010 -0.1266
vn 0.0926 0.9567 -0.2760
vn 0.2671 0.9259 -0.2671
vn -0.7020 0.1204 0.7020
vn -0.6531 0.3834 0.6531
vn -0.6946 0.1874 0.6946
vn -0.7806 0.0899 0.6185
vn -0.7506 0.2880 0.5947
vn -0.7772 0.1295 0.6158
vn 0.5381 0.6486 -0.5383
vn -0.6557 -0.5479 0.5195
vn -0.2671 0.9259 -0.2671
vn -0.0927 0.9567 -0.2760
vn 0.7441 0.6538 0.1372
vn 0.7474 0.6533 0.1209
vn 0.7131 0.6418 0.2821
vn -0.0810 0.7095 0.7001
vn 0.0000 0.7071 0.7071
vn 0.7070 0.7072 0.0000
vn 0.7070 0.0000 -0.7072
vn 0.7071 -0.7071 0.0000
vn -0.7070 0.0000 -0.7072
vn 0.0000 0.7695 -0.6386
vn -0.7838 0.0000 0.6210
vn -0.9137 0.4065 0.0000
vn -0.7071 -0.7071 0.0000
vn -0.1615 0.7072 0.6883
vn -0.0810 -0.7094 0.7002
vn -0.1615 -0.7071 0.6884
vn 0.0000 -0.7070 0.7072
vn 0.0983 0.6882 -0.7188
vn -0.1112 0.7116 -0.6937
vn 0.1521 0.6748 -0.7221
vn -0.7071 0.0000 0.7071
vn -0.7120 0.7022 -0.0002
vn -0.9285 0.3709 -0.0172
vn -0.9332 0.3590 -0.0178
vn 0.7070 0.0000 0.7072
vn -0.0000 0.7073 0.7069
vn -0.0003 0.7676 0.6409
vn -0.2210 0.7071 -0.6717
vn -0.2211 -0.7070 -0.6717
vn -0.1112 -0.7115 -0.6938
vn 0.2523 0.6439 -0.7223
vn 0.2523 -0.6438 -0.7224
vn 0.0983 -0.6882 -0.7189
vn 0.1522 -0.6748 -0.7222
vn 0.0000 0.7072 -0.7070
vn -0.7070 0.7072 0.0000
vn -0.7070 0.0000 0.7072
vn 0.7071 0.0000 -0.7071
vn -0.7071 -0.0000 -0.7071
vn 0.7081 0.7061 -0.0001
vn 0.0257 0.9318 -0.3620
vn 0.1363 0.7211 -0.6793
vn 0.9785 0.0000 0.2061
vn 0.9299 0.0000 0.3678
vn 0.0001 0.9351 0.3544
vn -0.9299 0.0000 0.3678
vn 0.7072 -0.7070 0.0000
vn -0.9258 0.0000 -0.3781
vn -0.9772 0.0000 -0.2125
vn -0.7072 -0.7070 0.0000
vn -0.0024 0.9255 -0.3788
vn -0.1106 0.6873 0.7179
vn 0.1237 0.7127 0.6904
vn -0.1690 0.6732 0.7199
vn 0.7071 0.7071 -0.0000
vn -0.7071 0.7071 0.0000
vn 0.2454 0.7072 0.6631
vn -0.2814 0.6386 0.7162
vn -0.2573 -0.0026 0.9663
vn 0.2450 -0.0018 0.9695
vn -0.2623 -0.0033 0.9650
vn -0.7064 -0.0044 0.7078
vn -0.7071 -0.0044 0.7071
vn -0.9150 -0.0028 -0.4034
vn -0.9697 -0.0021 -0.2444
vn -0.8807 -0.0023 -0.4736
vn -1.0000 -0.0007 0.0000
vn -0.7069 -0.0005 -0.7073
vn -0.7071 -0.0005 -0.7071
vn 0.7067 -0.0130 0.7074
vn 0.7070 -0.0130 0.7071
vn 0.7072 0.0000 -0.7071
vn -0.6759 -0.0035 0.7370
vn -0.7072 -0.0037 0.7070
vn 0.7071 -0.0000 0.7071
vn -0.7036 -0.0196 0.7104
vn -0.7071 -0.0196 0.7069
vn -0.7071 -0.0196 0.7068
vn -0.9788 -0.0024 -0.2050
vn -1.0000 -0.0018 0.0001
vn -0.9999 -0.0162 -0.0000
vn -0.8628 -0.0035 0.5056
vn -0.8272 -0.0031 0.5619
vn -0.2369 -0.0033 -0.9715
vn -0.4171 -0.0029 -0.9088
vn 0.2128 -0.0008 0.9771
vn 0.4759 -0.0010 0.8795
vn 0.0030 -1.0000 0.0015
vn 0.0045 -1.0000 0.0015
vn 0.0032 -1.0000 0.0014
vn 0.0048 -1.0000 -0.0000
vn 0.9734 0.0000 0.2290
vn 0.0000 -0.0115 0.9999
vn 0.3472 0.0000 0.9378
vn 0.0962 0.0000 -0.9954
vn -0.7072 0.7070 0.0001
vn -0.0003 0.7677 0.6408
vn 0.0000 0.9299 0.3678
vn -0.7072 -0.0005 -0.7071
vn 0.7070 -0.0130 0.7070
vn -0.7035 -0.0196 0.7104
vn -1.0000 -0.0019 0.0014
vn -0.4602 -0.0032 -0.8878
vn 0.4267 -0.0005 0.9044
s 1
f 5//1 6//2 7//3
f 13//4 10//4 12//4
f 19//4 20//4 16//4
f 23//5 14//5 22//5
f 25//6 27//7 24//7
f 29//5 21//5 28//5
f 1//8 31//8 30//8
f 6//5 33//5 32//5
f 34//9 25//6 35//10
f 36//7 17//7 16//7
f 14//11 38//11 22//11
f 7//12 32//13 31//13
f 39//14 2//14 40//14
f 20//15 28//16 21//15
f 37//17 18//18 17//19
f 43//20 44//20 45//21
f 47//22 49//23 46//23
f 50//4 51//4 52//4
f 53//20 54//20 55//20
f 57//5 58//5 56//5
f 59//24 60//25 61//26
f 63//7 65//7 62//7
f 54//20 66//20 67//20
f 67//20 55//20 54//20
f 68//4 69//4 70//4
f 71//4 72//4 73//4
f 70//4 74//4 75//4
f 76//20 77//20 78//20
f 80//14 82//14 79//14
f 83//20 84//20 85//20
f 87//14 75//14 86//14
f 78//20 85//20 76//20
f 89//27 71//27 90//28
f 84//20 76//20 85//20
f 93//20 95//20 92//20
f 96//4 75//4 74//4
f 98//29 100//30 97//30
f 70//4 75//4 68//4
f 102//31 104//32 101//33
f 106//34 108//35 105//35
f 110//14 112//14 109//14
f 114//7 116//7 113//7
f 118//32 120//32 117//32
f 122//5 124//5 121//5
f 125//7 107//7 106//7
f 111//4 123//4 112//4
f 81//4 127//4 128//4
f 130//36 127//37 129//37
f 132//38 134//39 131//40
f 135//4 82//4 128//4
f 137//32 139//32 136//32
f 46//23 64//14 63//14
f 61//26 140//41 141//42
f 141//42 59//24 61//26
f 142//43 71//27 89//27
f 144//44 145//45 135//46
f 71//4 143//4 72//4
f 81//4 128//4 82//4
f 146//20 147//20 148//47
f 73//4 90//4 71//4
f 52//4 149//4 58//4
f 150//4 72//4 143//4
f 88//7 152//7 151//7
f 52//4 58//4 50//4
f 44//20 146//20 45//21
f 97//32 154//32 153//32
f 156//5 72//5 155//5
f 148//47 45//21 146//20
f 157//48 145//7 144//7
f 117//49 120//50 150//51
f 160//14 162//14 159//14
f 164//5 166//5 163//5
f 164//4 159//4 165//4
f 163//20 162//20 161//20
f 168//32 170//32 167//32
f 159//7 172//7 162//7
f 159//4 167//4 171//4
f 172//20 169//20 162//20
f 174//14 176//14 173//14
f 178//5 172//5 177//5
f 178//4 173//4 171//4
f 177//20 176//20 175//20
f 160//32 177//32 178//32
f 180//7 182//7 179//7
f 180//4 178//4 181//4
f 182//20 161//20 179//20
f 27//52 184//53 24//52
f 122//54 95//54 113//54
f 125//55 85//55 86//55
f 102//56 55//57 56//58
f 141//59 131//59 80//60
f 121//61 137//61 92//61
f 136//62 110//62 93//62
f 140//63 129//64 132//65
f 156//66 148//47 151//67
f 87//68 78//69 153//70
f 47//71 53//72 101//73
f 62//74 57//74 67//74
f 48//75 104//75 149//75
f 109//55 114//55 94//55
f 118//76 45//21 155//77
f 157//78 59//79 79//80
f 46//81 66//82 54//81
f 62//83 66//83 63//83
f 57//84 65//84 50//84
f 51//85 65//85 64//85
f 103//86 56//58 58//86
f 67//87 56//87 55//87
f 47//71 104//88 48//88
f 55//89 101//33 53//89
f 149//90 103//90 58//90
f 54//81 47//91 46//81
f 52//92 48//93 149//93
f 51//94 49//92 52//92
f 105//95 76//96 84//97
f 87//68 154//98 68//98
f 77//99 153//100 78//101
f 69//90 154//90 100//90
f 126//102 86//102 75//102
f 85//103 87//104 86//82
f 83//83 125//83 106//83
f 96//85 126//85 75//85
f 77//105 98//96 97//105
f 69//106 99//107 70//107
f 83//108 105//95 84//97
f 96//109 108//110 107//109
f 70//107 108//110 74//111
f 116//85 112//85 123//85
f 138//90 111//90 139//90
f 121//112 95//112 122//112
f 136//113 92//113 137//113
f 109//82 93//82 110//82
f 113//83 94//83 114//83
f 115//102 109//102 112//102
f 139//114 110//114 136//114
f 122//115 116//115 123//115
f 138//116 121//116 124//116
f 157//78 60//117 59//79
f 130//118 60//25 144//119
f 158//120 79//121 82//121
f 141//42 79//122 59//24
f 134//39 80//123 131//40
f 135//124 158//124 82//124
f 141//59 132//65 131//59
f 129//125 133//126 132//38
f 127//127 134//127 133//127
f 61//26 129//128 140//41
f 142//129 146//130 44//131
f 156//84 152//84 73//84
f 148//83 88//132 151//83
f 90//124 152//85 91//124
f 119//116 155//116 72//116
f 148//47 155//77 45//21
f 45//133 117//113 43//113
f 150//90 119//127 72//127
f 147//134 89//130 88//134
f 43//135 142//129 44//131
f 105//35 99//29 98//29
f 185//136 187//137 188//138
f 11//14 190//14 191//14
f 13//139 189//140 38//140
f 193//141 195//142 192//143
f 4//144 39//144 196//144
f 4//145 33//146 5//145
f 1//147 40//148 2//147
f 16//115 29//149 36//149
f 197//150 188//138 198//151
f 11//152 199//152 190//152
f 19//153 42//154 200//155
f 199//7 9//7 201//7
f 8//115 201//115 9//115
f 194//156 203//157 195//142
f 41//158 19//158 200//158
f 197//150 203//159 202//160
f 183//161 192//162 184//53
f 186//163 35//164 187//137
f 183//4 26//4 194//4
f 7//3 1//165 4//166
f 1//165 2//167 4//166
f 2//167 3//168 4//166
f 4//166 5//1 7//3
f 14//4 8//4 13//4
f 8//4 9//4 13//4
f 9//4 10//4 13//4
f 10//4 11//4 12//4
f 21//4 15//4 20//4
f 15//4 16//4 20//4
f 16//4 17//4 18//4
f 18//4 19//4 16//4
f 23//5 8//5 14//5
f 25//6 26//169 27//7
f 29//5 15//5 21//5
f 1//8 7//8 31//8
f 6//5 5//5 33//5
f 34//9 26//169 25//6
f 36//7 37//7 17//7
f 14//11 13//11 38//11
f 7//12 6//12 32//13
f 39//14 3//14 2//14
f 20//15 41//16 28//16
f 37//17 42//170 18//18
f 47//22 48//22 49//23
f 57//5 50//5 58//5
f 63//7 64//7 65//7
f 80//14 81//14 82//14
f 87//14 68//14 75//14
f 91//171 88//28 90//28
f 88//28 89//27 90//28
f 93//20 94//20 95//20
f 98//29 99//29 100//30
f 102//31 103//32 104//32
f 106//34 107//34 108//35
f 110//14 111//14 112//14
f 114//7 115//7 116//7
f 118//32 119//32 120//32
f 122//5 123//5 124//5
f 125//7 126//7 107//7
f 111//4 124//4 123//4
f 130//36 128//172 127//37
f 132//38 133//126 134//39
f 137//32 138//32 139//32
f 46//23 49//23 64//14
f 142//43 143//43 71//27
f 128//172 130//36 135//46
f 130//36 144//44 135//46
f 88//7 91//7 152//7
f 97//32 100//32 154//32
f 156//5 73//5 72//5
f 157//48 158//120 145//7
f 143//43 142//43 150//51
f 142//43 117//49 150//51
f 160//14 161//14 162//14
f 164//5 165//5 166//5
f 164//4 160//4 159//4
f 163//20 166//20 162//20
f 168//32 169//32 170//32
f 159//7 171//7 172//7
f 159//4 168//4 167//4
f 172//20 170//20 169//20
f 174//14 175//14 176//14
f 178//5 171//5 172//5
f 178//4 174//4 173//4
f 177//20 172//20 176//20
f 160//32 161//32 177//32
f 180//7 181//7 182//7
f 180//4 160//4 178//4
f 182//20 177//20 161//20
f 27//52 183//161 184//53
f 46//81 63//82 66//82
f 62//83 67//83 66//83
f 57//84 62//84 65//84
f 51//85 50//85 65//85
f 103//86 102//56 56//58
f 67//87 57//87 56//87
f 47//71 101//73 104//88
f 55//89 102//31 101//33
f 149//90 104//90 103//90
f 54//81 53//91 47//91
f 52//92 49//92 48//93
f 51//94 64//94 49//92
f 105//95 98//96 76//96
f 87//68 153//70 154//98
f 77//99 97//173 153//100
f 69//90 68//90 154//90
f 126//102 125//102 86//102
f 85//103 78//174 87//104
f 83//83 85//83 125//83
f 96//85 107//85 126//85
f 77//105 76//96 98//96
f 69//106 100//106 99//107
f 83//108 106//108 105//95
f 96//109 74//111 108//110
f 70//107 99//107 108//110
f 116//85 115//85 112//85
f 138//90 124//90 111//90
f 121//112 92//112 95//112
f 136//113 93//113 92//113
f 109//82 94//82 93//82
f 113//83 95//83 94//83
f 115//102 114//102 109//102
f 139//114 111//114 110//114
f 122//115 113//115 116//115
f 138//116 137//116 121//116
f 157//78 144//132 60//117
f 130//118 61//26 60//25
f 158//120 157//48 79//121
f 141//42 80//175 79//122
f 134//39 81//123 80//123
f 135//124 145//124 158//124
f 141//59 140//63 132//65
f 129//125 127//125 133//126
f 127//127 81//127 134//127
f 61//26 130//118 129//128
f 142//129 89//130 146//130
f 156//84 151//84 152//84
f 148//83 147//132 88//132
f 90//124 73//85 152//85
f 119//116 118//116 155//116
f 148//47 156//66 155//77
f 45//133 118//133 117//113
f 150//90 120//90 119//127
f 147//134 146//130 89//130
f 43//135 117//135 142//129
f 105//35 108//35 99//29
f 185//136 186//163 187//137
f 191//14 189//14 12//14
f 12//14 11//14 191//14
f 13//139 12//139 189//140
f 193//141 194//156 195//142
f 4//144 3//144 39//144
f 4//145 196//176 33//146
f 1//147 30//177 40//148
f 16//115 15//115 29//149
f 197//150 185//136 188//138
f 11//152 10//152 199//152
f 19//153 18//178 42//154
f 199//7 10//7 9//7
f 8//115 23//115 201//115
f 194//156 202//179 203//157
f 41//158 20//158 19//158
f 197//150 198//151 203//159
f 183//161 193//180 192//162
f 186//163 34//181 35//164
f 27//4 26//4 183//4
f 26//4 34//4 186//4
f 186//4 185//4 194//4
f 185//4 197//4 202//4
f 202//4 194//4 185//4
f 194//4 193//4 183//4
f 26//4 186//4 194//4
